<svg width="20" height="20" viewBox="0 0 18 18" fill="none" xmlns="http://www.w3.org/2000/svg">
<path d="M14.6667 9.5C14.6667 6.62812 12.2789 4.3 9.33333 4.3C7.6553 4.3 6.18079 5.05627 5.21184 6.24558L6.33138 6.24239C6.69957 6.24133 6.99892 6.53149 7 6.89048C7.00108 7.24946 6.70347 7.54133 6.33529 7.54238L4.04004 7.54894C4.01444 7.55046 3.98867 7.55055 3.96285 7.54916L3.66862 7.55C3.49147 7.5505 3.3214 7.48224 3.19595 7.36029C3.07051 7.23834 3 7.07272 3 6.9L3 4.3C3 3.94101 3.29848 3.65 3.66667 3.65C4.03486 3.65 4.33334 3.94102 4.33334 4.3L4.33333 5.24216C5.5417 3.87125 7.31801 3 9.33333 3C13.0152 3 16 5.91015 16 9.5C16 13.0899 13.0152 16 9.33333 16C6.70937 16 4.49057 14.523 3.40299 12.3893C3.23913 12.0678 3.37359 11.6777 3.70331 11.5179C4.03303 11.3582 4.43315 11.4893 4.59701 11.8107C5.47303 13.5294 7.24567 14.7 9.33333 14.7C12.2789 14.7 14.6667 12.3719 14.6667 9.5Z" fill="#70708C" stroke="#70708C" stroke-width="0.4" stroke-linecap="round" stroke-linejoin="round"/>
<path fill-rule="evenodd" clip-rule="evenodd" d="M8.75 6C9.16421 6 9.5 6.33579 9.5 6.75V9.43934L10.7803 10.7197C11.0732 11.0126 11.0732 11.4874 10.7803 11.7803C10.4874 12.0732 10.0126 12.0732 9.71967 11.7803L8.43934 10.5C8.15804 10.2187 8 9.83716 8 9.43934V6.75C8 6.33579 8.33579 6 8.75 6Z" fill="#70708C"/>
</svg>
