<svg width="28" height="28" viewBox="0 0 28 28" fill="none" xmlns="http://www.w3.org/2000/svg">
<path d="M13.125 21.2918H10.5C9.21667 21.2918 8.16667 22.3418 8.16667 23.6251V23.9168H7C6.52167 23.9168 6.125 24.3135 6.125 24.7918C6.125 25.2701 6.52167 25.6668 7 25.6668H21C21.4783 25.6668 21.875 25.2701 21.875 24.7918C21.875 24.3135 21.4783 23.9168 21 23.9168H19.8333V23.6251C19.8333 22.3418 18.7833 21.2918 17.5 21.2918H14.875V18.6201C14.5833 18.6551 14.2917 18.6668 14 18.6668C13.7083 18.6668 13.4167 18.6551 13.125 18.6201V21.2918Z" fill="#FFB700"/>
<path d="M21.5599 13.5802C22.3299 13.2885 23.0066 12.8102 23.5432 12.2735C24.6282 11.0718 25.3399 9.63683 25.3399 7.95683C25.3399 6.27683 24.0216 4.9585 22.3416 4.9585H21.6882C20.9299 3.40683 19.3432 2.3335 17.4999 2.3335H10.4999C8.65658 2.3335 7.06991 3.40683 6.31158 4.9585H5.65825C3.97825 4.9585 2.65991 6.27683 2.65991 7.95683C2.65991 9.63683 3.37158 11.0718 4.45658 12.2735C4.99325 12.8102 5.66991 13.2885 6.43991 13.5802C7.65325 16.5668 10.5699 18.6668 13.9999 18.6668C17.4299 18.6668 20.3466 16.5668 21.5599 13.5802ZM17.3132 9.8585L16.5899 10.7452C16.4732 10.8735 16.3916 11.1302 16.4032 11.3052L16.4732 12.4485C16.5199 13.1485 16.0182 13.5102 15.3649 13.2535L14.3032 12.8335C14.1399 12.7752 13.8599 12.7752 13.6966 12.8335L12.6349 13.2535C11.9816 13.5102 11.4799 13.1485 11.5266 12.4485L11.5966 11.3052C11.6082 11.1302 11.5266 10.8735 11.4099 10.7452L10.6866 9.8585C10.2316 9.32183 10.4299 8.72683 11.1066 8.55183L12.2149 8.27183C12.3899 8.22516 12.5999 8.06183 12.6932 7.91016L13.3116 6.9535C13.6966 6.3585 14.3032 6.3585 14.6882 6.9535L15.3066 7.91016C15.3999 8.06183 15.6099 8.22516 15.7849 8.27183L16.8932 8.55183C17.5699 8.72683 17.7682 9.32183 17.3132 9.8585Z" fill="#FFB700"/>
</svg>
