<svg width="20" height="20" viewBox="0 0 18 18" fill="none" xmlns="http://www.w3.org/2000/svg">
    <path fill-rule="evenodd" clip-rule="evenodd"
        d="M16 9C16 12.866 12.866 16 9 16C5.13401 16 2 12.866 2 9C2 5.13401 5.13401 2 9 2C12.866 2 16 5.13401 16 9ZM9.7 13.2C9.7 13.5866 9.3866 13.9 9 13.9C8.6134 13.9 8.3 13.5866 8.3 13.2C8.3 12.8134 8.6134 12.5 9 12.5C9.3866 12.5 9.7 12.8134 9.7 13.2ZM7.67947 7.13327C7.87199 6.58857 8.39151 6.2 8.99998 6.2C9.77318 6.2 10.4 6.8268 10.4 7.6C10.4 8.3732 9.77318 9 8.99998 9C8.61338 9 8.29998 9.3134 8.29998 9.7V10.75C8.29998 11.1366 8.61338 11.45 8.99998 11.45C9.38658 11.45 9.69998 11.1366 9.69998 10.75V10.3118C10.9076 10.001 11.8 8.90469 11.8 7.6C11.8 6.0536 10.5464 4.8 8.99998 4.8C7.77975 4.8 6.74354 5.58016 6.35949 6.66673C6.23066 7.03123 6.4217 7.43115 6.78621 7.55999C7.15071 7.68882 7.55063 7.49777 7.67947 7.13327Z"
        fill="#70708C" />
</svg>