<svg width="25" height="25" viewBox="0 0 25 25" fill="none" xmlns="http://www.w3.org/2000/svg">
<path fill-rule="evenodd" clip-rule="evenodd" d="M2.08325 12.5002C2.08325 6.7472 6.74695 2.0835 12.4999 2.0835C15.2626 2.0835 17.9121 3.18096 19.8656 5.13447C21.8191 7.08797 22.9166 9.73749 22.9166 12.5002C22.9166 18.2531 18.2529 22.9168 12.4999 22.9168C6.74695 22.9168 2.08325 18.2531 2.08325 12.5002ZM15.1041 10.6772C15.3917 10.6772 15.6249 10.4441 15.6249 10.1564V9.37516C15.6249 8.22457 14.6922 7.29183 13.5416 7.29183V6.771C13.5416 6.48335 13.3084 6.25016 13.0208 6.25016H11.9791C11.6914 6.25016 11.4583 6.48335 11.4583 6.771V7.29183C10.3077 7.29183 9.37492 8.22457 9.37492 9.37516V10.2189C9.37648 10.8403 9.65532 11.4285 10.1353 11.8231L13.7083 14.771C13.771 14.8168 13.8063 14.8913 13.802 14.9689V15.8856H11.1978V14.8439C11.1978 14.5563 10.9647 14.3231 10.677 14.3231H9.89575C9.6081 14.3231 9.37492 14.5563 9.37492 14.8439V15.6252C9.37492 16.7758 10.3077 17.7085 11.4583 17.7085V18.2293C11.4583 18.517 11.6914 18.7502 11.9791 18.7502H13.0208C13.3084 18.7502 13.5416 18.517 13.5416 18.2293V17.7085C14.6922 17.7085 15.6249 16.7758 15.6249 15.6252V14.7814C15.6234 14.16 15.3445 13.5718 14.8645 13.1772L11.2916 10.2293C11.2288 10.1835 11.1935 10.109 11.1978 10.0314V9.11475H13.802V10.1564C13.802 10.4441 14.0352 10.6772 14.3228 10.6772H15.1041Z" fill="#FF55BF"/>
</svg>
