<svg width="28" height="28" viewBox="0 0 28 28" fill="none" xmlns="http://www.w3.org/2000/svg">
<path d="M5.3667 15.8667H3.9667C2.8069 15.8667 1.8667 16.9949 1.8667 18.3867V21.7467C1.8667 23.1385 2.8069 24.2667 3.9667 24.2667H5.3667C6.5265 24.2667 7.4667 23.1385 7.4667 21.7467V18.3867C7.4667 16.9949 6.5265 15.8667 5.3667 15.8667Z" fill="#605BFF"/>
<path d="M13.7666 10.2666H12.3666C11.2068 10.2666 10.2666 11.4419 10.2666 12.8916V21.6416C10.2666 23.0913 11.2068 24.2666 12.3666 24.2666H13.7666C14.9264 24.2666 15.8666 23.0913 15.8666 21.6416V12.8916C15.8666 11.4419 14.9264 10.2666 13.7666 10.2666Z" fill="#605BFF"/>
<path d="M23.1001 5.6001H21.7001C20.5403 5.6001 19.6001 6.73974 19.6001 8.14555V21.7213C19.6001 23.1271 20.5403 24.2668 21.7001 24.2668H23.1001C24.2599 24.2668 25.2001 23.1271 25.2001 21.7213V8.14555C25.2001 6.73974 24.2599 5.6001 23.1001 5.6001Z" fill="#605BFF"/>
</svg>
